<svg width="25" height="23" viewBox="0 0 25 23" fill="none" xmlns="http://www.w3.org/2000/svg">
    <path d="M23.2028 0.422033C22.9649 -0.120501 22.2852 -0.142203 22.0005 0.36995C20.6835 2.70936 18.3256 4.16769 15.6321 4.16769H12.2333C7.7299 4.16769 4.07621 7.90033 4.07621 12.501C4.07621 12.8048 4.1102 13.0956 4.13994 13.3908C6.85046 11.4073 10.7633 9.72325 16.3118 9.72325C16.6857 9.72325 16.9916 10.0357 16.9916 10.4177C16.9916 10.7996 16.6857 11.1121 16.3118 11.1121C5.63115 11.1121 1.10228 17.8005 0.0996389 20.3135C-0.18076 21.021 0.150621 21.8283 0.843122 22.1191C1.53987 22.4142 2.33009 22.0713 2.61898 21.3682C2.68271 21.212 3.50691 19.2892 5.67364 17.4359C7.05014 19.3413 9.6672 21.1599 13.1042 20.7866C19.7743 20.2918 24.4689 14.1807 24.4689 6.69807C24.4689 4.51926 24.01 2.26231 23.2028 0.422033Z" fill="#89CF9A"/>
</svg>
